<svg xmlns="http://www.w3.org/2000/svg" viewBox="0 0 108 108" fill="none">
  <defs>
    <linearGradient id="g" x1="0" y1="0" x2="1" y2="1"><stop offset="0%" stop-color="#7c6af7"/><stop offset="100%" stop-color="#5b8af5"/></linearGradient>
    <linearGradient id="bg" x1="0" y1="0" x2="1" y2="1"><stop offset="0%" stop-color="#14113a"/><stop offset="100%" stop-color="#0c1432"/></linearGradient>
    <filter id="glow"><feGaussianBlur stdDeviation="3" result="b"/><feMerge><feMergeNode in="b"/><feMergeNode in="SourceGraphic"/></feMerge></filter>
  </defs>
  <rect width="108" height="108" rx="24" fill="url(#bg)"/>
  <rect width="108" height="108" rx="24" stroke="rgba(124,106,247,0.22)" stroke-width="1.2"/>
  <path d="M 54 16 A 38 38 0 1 0 90 74" stroke="url(#g)" stroke-width="3.8" stroke-linecap="round" filter="url(#glow)"/>
  <line x1="38" y1="42" x2="38" y2="48" stroke="rgba(248,113,113,0.5)" stroke-width="1.5" stroke-linecap="round"/>
  <rect x="33" y="48" width="10" height="20" rx="2" fill="rgba(248,113,113,0.2)" stroke="#f87171" stroke-width="1.2"/>
  <line x1="38" y1="68" x2="38" y2="74" stroke="rgba(248,113,113,0.5)" stroke-width="1.5" stroke-linecap="round"/>
  <line x1="54" y1="28" x2="54" y2="36" stroke="rgba(124,106,247,0.65)" stroke-width="1.5" stroke-linecap="round"/>
  <rect x="49" y="36" width="10" height="32" rx="2" fill="url(#g)"/>
  <line x1="54" y1="68" x2="54" y2="74" stroke="rgba(124,106,247,0.65)" stroke-width="1.5" stroke-linecap="round"/>
  <line x1="70" y1="34" x2="70" y2="42" stroke="rgba(52,211,153,0.55)" stroke-width="1.5" stroke-linecap="round"/>
  <rect x="65" y="42" width="10" height="24" rx="2" fill="rgba(52,211,153,0.2)" stroke="#34d399" stroke-width="1.2"/>
  <line x1="70" y1="66" x2="70" y2="72" stroke="rgba(52,211,153,0.55)" stroke-width="1.5" stroke-linecap="round"/>
</svg>
